<svg width="17" height="16" viewBox="0 0 17 16" fill="none" xmlns="http://www.w3.org/2000/svg">
<path d="M3.75 2.25C4.375 2 5.5 2.125 5.875 2.875C6.125 3.5 6.375 4.375 6.375 4.25C6.375 3.75 6.375 2.75 6.5 2.25C6.625 1.875 6.875 1.5 7.375 1.375C7.75 1.25 8.125 1.25 8.5 1.25C8.875 1.375 9.25 1.625 9.5 1.875C10 2.625 10 4.25 10 4.125C10.125 3.75 10.125 2.625 10.375 2.125C10.5 1.875 11 1.625 11.25 1.5C11.625 1.375 12.125 1.375 12.5 1.5C12.75 1.5 13.25 1.875 13.375 2.125C13.625 2.5 13.75 3.75 13.875 4.25C13.875 4.375 14 3.75 14.25 3.375C14.75 2.625 16.5 2.375 16.625 4.125C16.625 5 16.625 4.875 16.625 5.5C16.625 6.125 16.625 6.5 16.625 7C16.625 7.5 16.5 8.625 16.375 9.125C16.25 9.5 15.875 10.375 15.5 10.875C15.5 10.875 14.125 12.375 14 13.125C13.875 13.875 13.875 13.875 13.875 14.375C13.875 14.875 14 15.5 14 15.5C14 15.5 13 15.625 12.5 15.5C12 15.375 11.375 14.5 11.25 14.125C11 13.75 10.625 13.75 10.375 14.125C10.125 14.625 9.5 15.5 9.125 15.5C8.25 15.625 6.5 15.5 5.25 15.5C5.25 15.5 5.5 14.25 5 13.75C4.625 13.375 4 12.75 3.625 12.375L2.625 11.25C2.25 10.75 1.375 10.125 1.125 8.75C0.875 7.625 0.875 7 1.125 6.5C1.375 6 2 5.75 2.25 5.75C2.5 5.75 3.125 5.75 3.375 5.875C3.625 6 3.75 6.125 4 6.375C4.25 6.75 4.375 7 4.25 6.5C4.125 6.125 3.875 5.75 3.75 5.25C3.625 4.75 3.25 4.125 3.25 3.375C2.625 3.375 2.75 2.625 3.75 2.25Z" stroke="black" stroke-width="0.75" stroke-linejoin="round"/>
</svg>
